<svg width="25" height="25" viewBox="0 0 25 25" fill="none" xmlns="http://www.w3.org/2000/svg">
<path fill-rule="evenodd" clip-rule="evenodd" d="M12.6777 4.16666C13.1067 2.95292 14.2643 2.08333 15.6249 2.08333C16.9856 2.08333 18.1431 2.95292 18.5721 4.16666H21.8749C22.4502 4.16666 22.9166 4.63303 22.9166 5.20833C22.9166 5.78362 22.4502 6.24999 21.8749 6.24999H18.5721C18.1431 7.46374 16.9856 8.33333 15.6249 8.33333C14.2643 8.33333 13.1067 7.46374 12.6777 6.24999L3.12492 6.25C2.54962 6.25 2.08325 5.78363 2.08325 5.20833C2.08325 4.63303 2.54962 4.16666 3.12492 4.16666L12.6777 4.16666ZM15.6249 4.16666C15.0496 4.16666 14.5833 4.63303 14.5833 5.20833C14.5833 5.78362 15.0496 6.24999 15.6249 6.24999C16.2002 6.24999 16.6666 5.78362 16.6666 5.20833C16.6666 4.63303 16.2002 4.16666 15.6249 4.16666ZM9.37492 11.4583C8.79962 11.4583 8.33325 11.9247 8.33325 12.5C8.33325 13.0753 8.79962 13.5417 9.37492 13.5417C9.95021 13.5417 10.4166 13.0753 10.4166 12.5C10.4166 11.9247 9.95021 11.4583 9.37492 11.4583ZM6.42774 11.4583C6.85673 10.2446 8.01427 9.37499 9.37492 9.37499C10.7356 9.37499 11.8931 10.2446 12.3221 11.4583L21.8749 11.4583C22.4502 11.4583 22.9166 11.9247 22.9166 12.5C22.9166 13.0753 22.4502 13.5417 21.8749 13.5417L12.3221 13.5417C11.8931 14.7554 10.7356 15.625 9.37492 15.625C8.01427 15.625 6.85673 14.7554 6.42774 13.5417H3.12492C2.54962 13.5417 2.08325 13.0753 2.08325 12.5C2.08325 11.9247 2.54962 11.4583 3.12492 11.4583H6.42774ZM12.6777 18.75C13.1067 17.5363 14.2643 16.6667 15.6249 16.6667C16.9856 16.6667 18.1431 17.5363 18.5721 18.75H21.8749C22.4502 18.75 22.9166 19.2164 22.9166 19.7917C22.9166 20.367 22.4502 20.8333 21.8749 20.8333H18.5721C18.1431 22.0471 16.9856 22.9167 15.6249 22.9167C14.2643 22.9167 13.1067 22.0471 12.6777 20.8333H3.12492C2.54962 20.8333 2.08325 20.367 2.08325 19.7917C2.08325 19.2164 2.54962 18.75 3.12492 18.75H12.6777ZM15.6249 18.75C15.0496 18.75 14.5833 19.2164 14.5833 19.7917C14.5833 20.367 15.0496 20.8333 15.6249 20.8333C16.2002 20.8333 16.6666 20.367 16.6666 19.7917C16.6666 19.2164 16.2002 18.75 15.6249 18.75Z" fill="black"/>
</svg>
