<svg width="112" height="152" viewBox="0 0 112 152" fill="none" xmlns="http://www.w3.org/2000/svg">
<g filter="url(#filter0_d_2_78)">
<g opacity="0.5" filter="url(#filter1_d_2_78)">
<rect x="56" y="42" width="40" height="40" rx="10" fill="#E8E8E8"/>
<rect x="56.25" y="42.25" width="39.5" height="39.5" rx="9.75" stroke="black" stroke-width="0.5"/>
</g>
<path fill-rule="evenodd" clip-rule="evenodd" d="M76.6777 54.1667C77.1067 52.9529 78.2643 52.0833 79.6249 52.0833C80.9856 52.0833 82.1431 52.9529 82.5721 54.1667H85.8749C86.4502 54.1667 86.9166 54.633 86.9166 55.2083C86.9166 55.7836 86.4502 56.25 85.8749 56.25H82.5721C82.1431 57.4637 80.9856 58.3333 79.6249 58.3333C78.2643 58.3333 77.1067 57.4637 76.6777 56.25L67.1249 56.25C66.5496 56.25 66.0833 55.7836 66.0833 55.2083C66.0833 54.633 66.5496 54.1667 67.1249 54.1667L76.6777 54.1667ZM79.6249 54.1667C79.0496 54.1667 78.5833 54.633 78.5833 55.2083C78.5833 55.7836 79.0496 56.25 79.6249 56.25C80.2002 56.25 80.6666 55.7836 80.6666 55.2083C80.6666 54.633 80.2002 54.1667 79.6249 54.1667ZM73.3749 61.4583C72.7996 61.4583 72.3333 61.9247 72.3333 62.5C72.3333 63.0753 72.7996 63.5417 73.3749 63.5417C73.9502 63.5417 74.4166 63.0753 74.4166 62.5C74.4166 61.9247 73.9502 61.4583 73.3749 61.4583ZM70.4277 61.4583C70.8567 60.2446 72.0143 59.375 73.3749 59.375C74.7356 59.375 75.8931 60.2446 76.3221 61.4583L85.8749 61.4583C86.4502 61.4583 86.9166 61.9247 86.9166 62.5C86.9166 63.0753 86.4502 63.5417 85.8749 63.5417L76.3221 63.5417C75.8931 64.7554 74.7356 65.625 73.3749 65.625C72.0143 65.625 70.8567 64.7554 70.4277 63.5417H67.1249C66.5496 63.5417 66.0833 63.0753 66.0833 62.5C66.0833 61.9247 66.5496 61.4583 67.1249 61.4583H70.4277ZM76.6777 68.75C77.1067 67.5363 78.2643 66.6667 79.6249 66.6667C80.9856 66.6667 82.1431 67.5363 82.5721 68.75H85.8749C86.4502 68.75 86.9166 69.2164 86.9166 69.7917C86.9166 70.367 86.4502 70.8333 85.8749 70.8333H82.5721C82.1431 72.0471 80.9856 72.9167 79.6249 72.9167C78.2643 72.9167 77.1067 72.0471 76.6777 70.8333H67.1249C66.5496 70.8333 66.0833 70.367 66.0833 69.7917C66.0833 69.2164 66.5496 68.75 67.1249 68.75H76.6777ZM79.6249 68.75C79.0496 68.75 78.5833 69.2164 78.5833 69.7917C78.5833 70.367 79.0496 70.8333 79.6249 70.8333C80.2002 70.8333 80.6666 70.367 80.6666 69.7917C80.6666 69.2164 80.2002 68.75 79.6249 68.75Z" fill="black"/>
</g>
<defs>
<filter id="filter0_d_2_78" x="0" y="0" width="152" height="152" filterUnits="userSpaceOnUse" color-interpolation-filters="sRGB">
<feFlood flood-opacity="0" result="BackgroundImageFix"/>
<feColorMatrix in="SourceAlpha" type="matrix" values="0 0 0 0 0 0 0 0 0 0 0 0 0 0 0 0 0 0 127 0" result="hardAlpha"/>
<feOffset dy="14"/>
<feGaussianBlur stdDeviation="28"/>
<feComposite in2="hardAlpha" operator="out"/>
<feColorMatrix type="matrix" values="0 0 0 0 0 0 0 0 0 0 0 0 0 0 0 0 0 0 0.14 0"/>
<feBlend mode="normal" in2="BackgroundImageFix" result="effect1_dropShadow_2_78"/>
<feBlend mode="normal" in="SourceGraphic" in2="effect1_dropShadow_2_78" result="shape"/>
</filter>
<filter id="filter1_d_2_78" x="0" y="0" width="152" height="152" filterUnits="userSpaceOnUse" color-interpolation-filters="sRGB">
<feFlood flood-opacity="0" result="BackgroundImageFix"/>
<feColorMatrix in="SourceAlpha" type="matrix" values="0 0 0 0 0 0 0 0 0 0 0 0 0 0 0 0 0 0 127 0" result="hardAlpha"/>
<feOffset dy="14"/>
<feGaussianBlur stdDeviation="28"/>
<feComposite in2="hardAlpha" operator="out"/>
<feColorMatrix type="matrix" values="0 0 0 0 0 0 0 0 0 0 0 0 0 0 0 0 0 0 0.14 0"/>
<feBlend mode="normal" in2="BackgroundImageFix" result="effect1_dropShadow_2_78"/>
<feBlend mode="normal" in="SourceGraphic" in2="effect1_dropShadow_2_78" result="shape"/>
</filter>
</defs>
</svg>
