<svg width="24" height="24" viewBox="0 0 24 24" fill="none" xmlns="http://www.w3.org/2000/svg">
<path fill-rule="evenodd" clip-rule="evenodd" d="M20.3394 7.65935C21.0094 8.17835 21.4204 8.94935 21.4904 9.78835L21.5004 9.98935V18.0984C21.5004 20.1884 19.8494 21.8884 17.7804 21.9984H15.7904C14.8394 21.9794 14.0704 21.2394 14.0004 20.3094L13.9904 20.1684V17.3094C13.9904 16.9984 13.7594 16.7394 13.4504 16.6884L13.3604 16.6784H10.6894C10.3704 16.6884 10.1104 16.9184 10.0704 17.2184L10.0604 17.3094V20.1594C10.0604 20.2184 10.0494 20.2884 10.0404 20.3384L10.0304 20.3594L10.0194 20.4284C9.9004 21.2794 9.2004 21.9284 8.3304 21.9894L8.2004 21.9984H6.4104C4.3204 21.9984 2.6104 20.3594 2.5004 18.2984V9.98935C2.5094 9.13835 2.8804 8.34835 3.5004 7.79835L9.7304 2.78835C11.0004 1.77935 12.7804 1.73935 14.0894 2.66835L14.2504 2.78835L20.3394 7.65935ZM20.0994 18.2584L20.1104 18.0984V9.99835C20.0994 9.56935 19.9204 9.16835 19.6104 8.86935L19.4804 8.75835L13.3804 3.87835C12.6204 3.26835 11.5404 3.23935 10.7404 3.76835L10.5894 3.87835L4.5094 8.77935C4.1604 9.03835 3.9504 9.42835 3.9004 9.83835L3.8894 9.99835V18.0984C3.8894 19.4284 4.9294 20.5184 6.2504 20.5984H8.2004C8.4204 20.5984 8.6104 20.4494 8.6394 20.2394L8.6604 20.0594L8.6704 20.0084V17.3094C8.6704 16.2394 9.4904 15.3694 10.5404 15.2884H13.3604C14.4294 15.2884 15.2994 16.1094 15.3804 17.1594V20.1684C15.3804 20.3784 15.5304 20.5594 15.7304 20.5984H17.5894C18.9294 20.5984 20.0194 19.5694 20.0994 18.2584Z" fill="#200E32"/>
</svg>
